<mxfile host="app.diagrams.net" agent="Mozilla/5.0 (Windows NT 10.0; Win64; x64) AppleWebKit/537.36 (KHTML, like Gecko) Chrome/136.0.0.0 Safari/537.36" version="27.0.9">
  <diagram name="Page-1" id="4fc8d65c-f3f6-feb3-4d1c-02f59d9f9886">
    <mxGraphModel dx="442" dy="207" grid="1" gridSize="10" guides="1" tooltips="1" connect="1" arrows="1" fold="1" page="1" pageScale="1" pageWidth="1169" pageHeight="827" background="none" math="0" shadow="0">
      <root>
        <mxCell id="0" />
        <mxCell id="1" parent="0" />
        <mxCell id="8" value="Problem" style="whiteSpace=wrap;strokeWidth=3" parent="1" vertex="1">
          <mxGeometry x="760" y="350" width="120" height="60" as="geometry" />
        </mxCell>
        <mxCell id="9" value="" style="edgeStyle=none;strokeWidth=4" parent="1" target="8" edge="1">
          <mxGeometry width="100" height="100" relative="1" as="geometry">
            <mxPoint x="310" y="380" as="sourcePoint" />
            <mxPoint x="320" y="330" as="targetPoint" />
          </mxGeometry>
        </mxCell>
        <mxCell id="143" value="METHODS" style="whiteSpace=wrap;strokeWidth=2" parent="1" vertex="1">
          <mxGeometry x="370" y="210" width="120" height="60" as="geometry" />
        </mxCell>
        <mxCell id="144" value="MACHINES" style="whiteSpace=wrap;strokeWidth=2" parent="1" vertex="1">
          <mxGeometry x="370" y="500" width="120" height="60" as="geometry" />
        </mxCell>
        <mxCell id="145" value="" style="edgeStyle=none;exitX=0.5;exitY=1;strokeWidth=3" parent="1" source="143" edge="1">
          <mxGeometry width="100" height="100" relative="1" as="geometry">
            <mxPoint x="426" y="289.9999999999999" as="sourcePoint" />
            <mxPoint x="486" y="379.99999999999994" as="targetPoint" />
          </mxGeometry>
        </mxCell>
        <mxCell id="146" value="" style="edgeStyle=none;exitX=0.5;exitY=0;strokeWidth=3;exitDx=0;exitDy=0;" parent="1" edge="1" source="144">
          <mxGeometry width="100" height="100" relative="1" as="geometry">
            <mxPoint x="426.0000000000001" y="499.99999999999994" as="sourcePoint" />
            <mxPoint x="486" y="379.99999999999994" as="targetPoint" />
          </mxGeometry>
        </mxCell>
        <mxCell id="148" value="" style="edgeStyle=none;endArrow=none;strokeWidth=2" parent="1" edge="1">
          <mxGeometry width="100" height="100" relative="1" as="geometry">
            <mxPoint x="366" y="337" as="sourcePoint" />
            <mxPoint x="461.9999999999999" y="336.9999999999999" as="targetPoint" />
          </mxGeometry>
        </mxCell>
        <mxCell id="165" value="" style="edgeStyle=none;endArrow=none;" parent="1" edge="1">
          <mxGeometry width="100" height="100" relative="1" as="geometry">
            <mxPoint x="416" y="360" as="sourcePoint" />
            <mxPoint x="442.51774691358014" y="337.369598765432" as="targetPoint" />
          </mxGeometry>
        </mxCell>
        <mxCell id="166" value="" style="edgeStyle=none;endArrow=none;" parent="1" edge="1">
          <mxGeometry width="100" height="100" relative="1" as="geometry">
            <mxPoint x="386" y="360" as="sourcePoint" />
            <mxPoint x="410.51774691358037" y="337.369598765432" as="targetPoint" />
          </mxGeometry>
        </mxCell>
        <mxCell id="177" value="Detail" style="text;spacingTop=-5;fontSize=8;align=center;verticalAlign=middle;points=[]" parent="1" vertex="1">
          <mxGeometry x="340" y="330" width="30" height="20" as="geometry" />
        </mxCell>
        <mxCell id="184" value="Sub-detail" style="text;spacingTop=-5;fontSize=6;align=center;verticalAlign=middle;points=[]" parent="1" vertex="1">
          <mxGeometry x="370" y="360" width="30" height="20" as="geometry" />
        </mxCell>
        <mxCell id="185" value="Sub-detail" style="text;spacingTop=-5;fontSize=6;align=center;verticalAlign=middle;points=[]" parent="1" vertex="1">
          <mxGeometry x="400" y="360" width="30" height="20" as="geometry" />
        </mxCell>
        <mxCell id="204" value="MANPOWER" style="whiteSpace=wrap;strokeWidth=2" parent="1" vertex="1">
          <mxGeometry x="560" y="210" width="120" height="60" as="geometry" />
        </mxCell>
        <mxCell id="205" value="MATERIAL" style="whiteSpace=wrap;strokeWidth=2" parent="1" vertex="1">
          <mxGeometry x="560" y="500" width="120" height="60" as="geometry" />
        </mxCell>
        <mxCell id="206" value="" style="edgeStyle=none;exitX=0.5;exitY=1;strokeWidth=3" parent="1" source="204" edge="1">
          <mxGeometry width="100" height="100" relative="1" as="geometry">
            <mxPoint x="615.8333333333331" y="291.5277777777775" as="sourcePoint" />
            <mxPoint x="675.8333333333331" y="381.52777777777754" as="targetPoint" />
          </mxGeometry>
        </mxCell>
        <mxCell id="207" value="" style="edgeStyle=none;exitX=0.5;exitY=0;strokeWidth=3;exitDx=0;exitDy=0;" parent="1" edge="1" source="205">
          <mxGeometry width="100" height="100" relative="1" as="geometry">
            <mxPoint x="615.8333333333333" y="501.5277777777776" as="sourcePoint" />
            <mxPoint x="675.8333333333331" y="381.52777777777754" as="targetPoint" />
          </mxGeometry>
        </mxCell>
        <mxCell id="sfnkssfLAMKxVPnzSxlk-270" value="" style="edgeStyle=none;endArrow=none;strokeWidth=2" edge="1" parent="1">
          <mxGeometry width="100" height="100" relative="1" as="geometry">
            <mxPoint x="376" y="310" as="sourcePoint" />
            <mxPoint x="446.9999999999999" y="309.97" as="targetPoint" />
          </mxGeometry>
        </mxCell>
        <mxCell id="sfnkssfLAMKxVPnzSxlk-274" value="" style="endArrow=none;html=1;rounded=0;" edge="1" parent="1">
          <mxGeometry width="50" height="50" relative="1" as="geometry">
            <mxPoint x="385" y="285" as="sourcePoint" />
            <mxPoint x="410.06" y="310" as="targetPoint" />
          </mxGeometry>
        </mxCell>
        <mxCell id="sfnkssfLAMKxVPnzSxlk-277" value="" style="endArrow=none;html=1;rounded=0;" edge="1" parent="1">
          <mxGeometry width="50" height="50" relative="1" as="geometry">
            <mxPoint x="413.97" y="285" as="sourcePoint" />
            <mxPoint x="438.03000000000003" y="310" as="targetPoint" />
          </mxGeometry>
        </mxCell>
        <mxCell id="sfnkssfLAMKxVPnzSxlk-278" value="" style="edgeStyle=none;endArrow=none;strokeWidth=2" edge="1" parent="1">
          <mxGeometry width="100" height="100" relative="1" as="geometry">
            <mxPoint x="372" y="459" as="sourcePoint" />
            <mxPoint x="445.9999999999999" y="458.9999999999999" as="targetPoint" />
          </mxGeometry>
        </mxCell>
        <mxCell id="sfnkssfLAMKxVPnzSxlk-279" value="" style="edgeStyle=none;endArrow=none;" edge="1" parent="1">
          <mxGeometry width="100" height="100" relative="1" as="geometry">
            <mxPoint x="407" y="482" as="sourcePoint" />
            <mxPoint x="433.51774691358014" y="459.369598765432" as="targetPoint" />
          </mxGeometry>
        </mxCell>
        <mxCell id="sfnkssfLAMKxVPnzSxlk-280" value="" style="edgeStyle=none;endArrow=none;" edge="1" parent="1">
          <mxGeometry width="100" height="100" relative="1" as="geometry">
            <mxPoint x="372" y="482" as="sourcePoint" />
            <mxPoint x="396.51774691358037" y="459.369598765432" as="targetPoint" />
          </mxGeometry>
        </mxCell>
        <mxCell id="sfnkssfLAMKxVPnzSxlk-281" value="Detail" style="text;spacingTop=-5;fontSize=8;align=center;verticalAlign=middle;points=[]" vertex="1" parent="1">
          <mxGeometry x="350" y="440" width="30" height="20" as="geometry" />
        </mxCell>
        <mxCell id="sfnkssfLAMKxVPnzSxlk-282" value="Sub-detail" style="text;spacingTop=-5;fontSize=6;align=center;verticalAlign=middle;points=[]" vertex="1" parent="1">
          <mxGeometry x="340" y="480" width="30" height="20" as="geometry" />
        </mxCell>
        <mxCell id="sfnkssfLAMKxVPnzSxlk-283" value="Sub-detail" style="text;spacingTop=-5;fontSize=6;align=center;verticalAlign=middle;points=[]" vertex="1" parent="1">
          <mxGeometry x="380" y="480" width="30" height="20" as="geometry" />
        </mxCell>
        <mxCell id="sfnkssfLAMKxVPnzSxlk-284" value="" style="edgeStyle=none;endArrow=none;strokeWidth=2" edge="1" parent="1">
          <mxGeometry width="100" height="100" relative="1" as="geometry">
            <mxPoint x="368" y="423" as="sourcePoint" />
            <mxPoint x="464" y="423" as="targetPoint" />
          </mxGeometry>
        </mxCell>
        <mxCell id="sfnkssfLAMKxVPnzSxlk-285" value="" style="endArrow=none;html=1;rounded=0;" edge="1" parent="1">
          <mxGeometry width="50" height="50" relative="1" as="geometry">
            <mxPoint x="372" y="397" as="sourcePoint" />
            <mxPoint x="397.06" y="422" as="targetPoint" />
          </mxGeometry>
        </mxCell>
        <mxCell id="sfnkssfLAMKxVPnzSxlk-286" value="" style="endArrow=none;html=1;rounded=0;" edge="1" parent="1">
          <mxGeometry width="50" height="50" relative="1" as="geometry">
            <mxPoint x="412.97" y="398" as="sourcePoint" />
            <mxPoint x="437.03000000000003" y="423" as="targetPoint" />
          </mxGeometry>
        </mxCell>
        <mxCell id="sfnkssfLAMKxVPnzSxlk-306" value="" style="edgeStyle=none;endArrow=none;strokeWidth=2" edge="1" parent="1">
          <mxGeometry width="100" height="100" relative="1" as="geometry">
            <mxPoint x="565" y="454" as="sourcePoint" />
            <mxPoint x="638.9999999999999" y="453.9999999999999" as="targetPoint" />
          </mxGeometry>
        </mxCell>
        <mxCell id="sfnkssfLAMKxVPnzSxlk-307" value="" style="edgeStyle=none;endArrow=none;" edge="1" parent="1">
          <mxGeometry width="100" height="100" relative="1" as="geometry">
            <mxPoint x="599" y="477" as="sourcePoint" />
            <mxPoint x="625.5177469135801" y="454.369598765432" as="targetPoint" />
          </mxGeometry>
        </mxCell>
        <mxCell id="sfnkssfLAMKxVPnzSxlk-308" value="" style="edgeStyle=none;endArrow=none;" edge="1" parent="1">
          <mxGeometry width="100" height="100" relative="1" as="geometry">
            <mxPoint x="565" y="477" as="sourcePoint" />
            <mxPoint x="589.5177469135804" y="454.369598765432" as="targetPoint" />
          </mxGeometry>
        </mxCell>
        <mxCell id="sfnkssfLAMKxVPnzSxlk-309" value="Detail" style="text;spacingTop=-5;fontSize=8;align=center;verticalAlign=middle;points=[]" vertex="1" parent="1">
          <mxGeometry x="540" y="440" width="30" height="20" as="geometry" />
        </mxCell>
        <mxCell id="sfnkssfLAMKxVPnzSxlk-310" value="Sub-detail" style="text;spacingTop=-5;fontSize=6;align=center;verticalAlign=middle;points=[]" vertex="1" parent="1">
          <mxGeometry x="540" y="470" width="30" height="20" as="geometry" />
        </mxCell>
        <mxCell id="sfnkssfLAMKxVPnzSxlk-311" value="Sub-detail" style="text;spacingTop=-5;fontSize=6;align=center;verticalAlign=middle;points=[]" vertex="1" parent="1">
          <mxGeometry x="580" y="470" width="30" height="20" as="geometry" />
        </mxCell>
        <mxCell id="sfnkssfLAMKxVPnzSxlk-312" value="" style="edgeStyle=none;endArrow=none;strokeWidth=2" edge="1" parent="1">
          <mxGeometry width="100" height="100" relative="1" as="geometry">
            <mxPoint x="561" y="423" as="sourcePoint" />
            <mxPoint x="654" y="423" as="targetPoint" />
          </mxGeometry>
        </mxCell>
        <mxCell id="sfnkssfLAMKxVPnzSxlk-313" value="" style="endArrow=none;html=1;rounded=0;" edge="1" parent="1">
          <mxGeometry width="50" height="50" relative="1" as="geometry">
            <mxPoint x="564" y="398" as="sourcePoint" />
            <mxPoint x="589.06" y="423" as="targetPoint" />
          </mxGeometry>
        </mxCell>
        <mxCell id="sfnkssfLAMKxVPnzSxlk-314" value="" style="endArrow=none;html=1;rounded=0;" edge="1" parent="1">
          <mxGeometry width="50" height="50" relative="1" as="geometry">
            <mxPoint x="601.97" y="398" as="sourcePoint" />
            <mxPoint x="626.03" y="423" as="targetPoint" />
          </mxGeometry>
        </mxCell>
        <mxCell id="sfnkssfLAMKxVPnzSxlk-316" value="" style="edgeStyle=none;endArrow=none;strokeWidth=2" edge="1" parent="1">
          <mxGeometry width="100" height="100" relative="1" as="geometry">
            <mxPoint x="556" y="336" as="sourcePoint" />
            <mxPoint x="651.9999999999999" y="335.9999999999999" as="targetPoint" />
          </mxGeometry>
        </mxCell>
        <mxCell id="sfnkssfLAMKxVPnzSxlk-317" value="" style="edgeStyle=none;endArrow=none;" edge="1" parent="1">
          <mxGeometry width="100" height="100" relative="1" as="geometry">
            <mxPoint x="606" y="359" as="sourcePoint" />
            <mxPoint x="632.5177469135801" y="336.369598765432" as="targetPoint" />
          </mxGeometry>
        </mxCell>
        <mxCell id="sfnkssfLAMKxVPnzSxlk-318" value="" style="edgeStyle=none;endArrow=none;" edge="1" parent="1">
          <mxGeometry width="100" height="100" relative="1" as="geometry">
            <mxPoint x="576" y="359" as="sourcePoint" />
            <mxPoint x="600.5177469135804" y="336.369598765432" as="targetPoint" />
          </mxGeometry>
        </mxCell>
        <mxCell id="sfnkssfLAMKxVPnzSxlk-319" value="Detail" style="text;spacingTop=-5;fontSize=8;align=center;verticalAlign=middle;points=[]" vertex="1" parent="1">
          <mxGeometry x="530" y="330" width="30" height="20" as="geometry" />
        </mxCell>
        <mxCell id="sfnkssfLAMKxVPnzSxlk-320" value="Sub-detail" style="text;spacingTop=-5;fontSize=6;align=center;verticalAlign=middle;points=[]" vertex="1" parent="1">
          <mxGeometry x="560" y="360" width="30" height="20" as="geometry" />
        </mxCell>
        <mxCell id="sfnkssfLAMKxVPnzSxlk-321" value="Sub-detail" style="text;spacingTop=-5;fontSize=6;align=center;verticalAlign=middle;points=[]" vertex="1" parent="1">
          <mxGeometry x="590" y="360" width="30" height="20" as="geometry" />
        </mxCell>
        <mxCell id="sfnkssfLAMKxVPnzSxlk-322" value="" style="edgeStyle=none;endArrow=none;strokeWidth=2" edge="1" parent="1">
          <mxGeometry width="100" height="100" relative="1" as="geometry">
            <mxPoint x="566" y="309" as="sourcePoint" />
            <mxPoint x="636.9999999999999" y="308.97" as="targetPoint" />
          </mxGeometry>
        </mxCell>
        <mxCell id="sfnkssfLAMKxVPnzSxlk-323" value="" style="endArrow=none;html=1;rounded=0;" edge="1" parent="1">
          <mxGeometry width="50" height="50" relative="1" as="geometry">
            <mxPoint x="575" y="284" as="sourcePoint" />
            <mxPoint x="600.06" y="309" as="targetPoint" />
          </mxGeometry>
        </mxCell>
        <mxCell id="sfnkssfLAMKxVPnzSxlk-324" value="" style="endArrow=none;html=1;rounded=0;" edge="1" parent="1">
          <mxGeometry width="50" height="50" relative="1" as="geometry">
            <mxPoint x="603.97" y="284" as="sourcePoint" />
            <mxPoint x="628.03" y="309" as="targetPoint" />
          </mxGeometry>
        </mxCell>
      </root>
    </mxGraphModel>
  </diagram>
</mxfile>
